<?xml version="1.0" encoding="utf-8"?>
<!-- Generator: Adobe Illustrator 20.1.0, SVG Export Plug-In . SVG Version: 6.00 Build 0)  -->
<svg version="1.2" baseProfile="tiny" id="Layer_1" xmlns="http://www.w3.org/2000/svg" xmlns:xlink="http://www.w3.org/1999/xlink"
	 x="0px" y="0px" viewBox="0 0 300 444" xml:space="preserve">
<rect fill="#FFFFFF" width="300" height="444"/>
<g>
	<g>
		<g>
			<g>
				<path fill="#F8F8F8" d="M124.6,254.3c0-14,11.4-25.5,25.5-25.5c14,0,25.5,11.4,25.5,25.5h12.5c0-20.9-17-37.9-37.9-37.9
					c-20.9,0-37.9,17-37.9,37.9H124.6z"/>
			</g>
		</g>
		<g>
			<path fill="#F8F8F8" d="M138.4,202.2c0,6.9-5.6,12.5-12.5,12.5c-6.9,0-12.5-5.6-12.5-12.5c0-6.9,5.6-12.5,12.5-12.5
				C132.8,189.7,138.4,195.3,138.4,202.2z"/>
		</g>
		<g>
			<path fill="#F8F8F8" d="M186.3,202.2c0,6.9-5.6,12.5-12.5,12.5c-6.9,0-12.5-5.6-12.5-12.5c0-6.9,5.6-12.5,12.5-12.5
				C180.7,189.7,186.3,195.3,186.3,202.2z"/>
		</g>
	</g>
	<path fill="#F8F8F8" d="M150,149.2c-40.1,0-72.8,32.6-72.8,72.8c0,40.1,32.6,72.8,72.8,72.8c40.1,0,72.7-32.6,72.7-72.8
		C222.8,181.9,190.1,149.2,150,149.2z M150,279.7c-31.9,0-57.7-25.9-57.7-57.7c0-31.9,25.8-57.7,57.7-57.7
		c31.9,0,57.7,25.9,57.7,57.7C207.7,253.9,181.9,279.7,150,279.7z"/>
</g>
</svg>
